<?xml version="1.0" encoding="UTF-8"?>
<svg id="Layer_1" xmlns="http://www.w3.org/2000/svg" version="1.1" viewBox="0 0 2492.31 876.84">
  <!-- Generator: Adobe Illustrator 30.3.0, SVG Export Plug-In . SVG Version: 2.1.3 Build 182)  -->
  <defs>
    <style>
      .st0 {
        fill-rule: evenodd;
      }
    </style>
  </defs>
  <g>
    <path class="st0" d="M346.3,276.31c82.66,0,149.66,64.48,149.66,144.03s-67,144.03-149.66,144.03-149.65-64.49-149.65-144.03,67-144.03,149.65-144.03M458.76,386.82c11.13,0,20.15,8.68,20.15,19.4s-9.02,19.4-20.15,19.4-20.16-8.68-20.16-19.4,9.02-19.4,20.16-19.4ZM346.3,207c98.69,0,178.7,80,178.7,178.69s-80,178.69-178.7,178.69-178.69-80-178.69-178.69,80-178.69,178.69-178.69Z"/>
    <path class="st0" d="M486.68,611.15c37.66,0,68.19,29.37,68.19,65.63s-30.53,65.62-68.19,65.62-68.19-29.38-68.19-65.62,30.53-65.63,68.19-65.63M537.92,661.49c5.07,0,9.19,3.96,9.19,8.84s-4.12,8.83-9.19,8.83-9.19-3.95-9.19-8.83,4.12-8.84,9.19-8.84ZM486.68,579.56c44.97,0,81.43,36.46,81.43,81.42s-36.46,81.42-81.43,81.42-81.42-36.44-81.42-81.42,36.45-81.42,81.42-81.42Z"/>
    <path class="st0" d="M677.5,478.33c54.84,0,99.29,42.78,99.29,95.56s-44.45,95.55-99.29,95.55-99.29-42.77-99.29-95.55,44.46-95.56,99.29-95.56M752.11,551.64c7.38,0,13.37,5.77,13.37,12.87s-5.99,12.88-13.37,12.88-13.37-5.77-13.37-12.88,5.99-12.87,13.37-12.87ZM677.5,432.34c65.47,0,118.55,53.08,118.55,118.57s-53.08,118.55-118.55,118.55-118.56-53.08-118.56-118.55,53.08-118.57,118.56-118.57Z"/>
    <path class="st0" d="M579.08,205.21c23.49-7.87,48.66,4.08,56.23,26.68,7.57,22.6-5.33,47.3-28.82,55.17-23.48,7.87-48.66-4.08-56.22-26.68-7.57-22.6,5.33-47.3,28.81-55.16M621.56,225.91c3.16-1.06,6.55.55,7.57,3.59,1.02,3.05-.72,6.37-3.88,7.43-3.16,1.06-6.55-.56-7.58-3.6-1.02-3.04.72-6.37,3.89-7.43ZM572.49,185.51c28.04-9.39,58.39,5.72,67.78,33.77,9.38,28.05-5.73,58.39-33.78,67.78-28.04,9.39-58.38-5.72-67.78-33.77-9.39-28.04,5.73-58.39,33.77-67.78Z"/>
    <path class="st0" d="M270.1,56.87c23.37,12.77,32.36,41.35,20.07,63.84-12.29,22.5-41.19,30.37-64.56,17.6-23.37-12.77-32.36-41.35-20.07-63.84,12.29-22.49,41.19-30.37,64.56-17.6M284.82,105.49c3.15,1.72,4.36,5.57,2.7,8.59-1.65,3.03-5.55,4.09-8.69,2.38-3.15-1.72-4.36-5.57-2.7-8.6,1.65-3.03,5.55-4.09,8.69-2.37ZM280.81,37.27c27.91,15.25,38.17,50.22,22.92,78.13-15.25,27.91-50.23,38.17-78.14,22.92-27.91-15.25-38.16-50.23-22.91-78.13,15.25-27.91,50.22-38.17,78.13-22.92Z"/>
    <path class="st0" d="M306.44,747.81c22.09,0,40,17.23,40,38.5s-17.91,38.5-40,38.5-39.99-17.23-39.99-38.5,17.9-38.5,39.99-38.5M336.5,777.34c2.98,0,5.38,2.32,5.38,5.18s-2.41,5.18-5.38,5.18-5.38-2.32-5.38-5.18,2.41-5.18,5.38-5.18ZM306.44,729.29c26.38,0,47.76,21.38,47.76,47.75s-21.38,47.75-47.76,47.75-47.75-21.38-47.75-47.75,21.38-47.75,47.75-47.75Z"/>
    <path class="st0" d="M149.05,540.01c15.62,0,28.28,12.19,28.28,27.22s-12.66,27.22-28.28,27.22-28.29-12.18-28.29-27.22,12.66-27.22,28.29-27.22M170.29,560.89c2.11,0,3.81,1.65,3.81,3.67s-1.7,3.66-3.81,3.66-3.81-1.64-3.81-3.66,1.71-3.67,3.81-3.67ZM149.05,526.91c18.65,0,33.77,15.12,33.77,33.78s-15.12,33.77-33.77,33.77-33.77-15.12-33.77-33.77,15.12-33.78,33.77-33.78Z"/>
    <path class="st0" d="M486.78,13.1c15.62,0,28.28,12.18,28.28,27.22s-12.66,27.22-28.28,27.22-28.29-12.18-28.29-27.22,12.66-27.22,28.29-27.22M508.03,33.98c2.11,0,3.81,1.64,3.81,3.67s-1.7,3.66-3.81,3.66-3.8-1.64-3.8-3.66,1.7-3.67,3.8-3.67ZM486.78,0c18.65,0,33.77,15.12,33.77,33.77s-15.12,33.77-33.77,33.77-33.77-15.12-33.77-33.77S468.13,0,486.78,0Z"/>
    <path class="st0" d="M22.24,517.61c0-186.11,150.87-336.98,336.98-336.98,58.03,0,112.62,14.66,160.29,40.49l10.14-19.79c-50.71-27.39-108.76-42.93-170.43-42.93C160.83,158.4,0,319.23,0,517.62s160.83,359.22,359.22,359.22c123.96,0,233.27-62.81,297.83-158.32h-27.25c-61.42,82.59-159.75,136.09-270.58,136.09-186.12,0-336.98-150.88-336.98-337"/>
    <path class="st0" d="M229.17,742.97c-77.76-44.97-130.09-129.06-130.09-225.34,0-46.97,12.45-91.02,34.22-129.05,1.83-3.19,2.66-6.34,2.66-10.03v-33.84c-37.06,47.77-59.12,107.78-59.12,172.92,0,113.05,66.43,210.58,162.39,255.68v-12.89c0-7.39-3.67-13.74-10.07-17.45"/>
  </g>
  <g>
    <g>
      <g>
        <path d="M944.35,514.65h-45.58c-6.58,0-11.28-1.5-14.09-4.51-2.82-3.01-4.22-7.79-4.22-14.36v-114.26c0-6.7,1.44-11.53,4.32-14.46,2.88-2.94,7.54-4.41,13.99-4.41h48.33c7.12,0,13.29.45,18.52,1.35,5.22.9,9.9,2.63,14.04,5.18,3.53,2.14,6.65,4.86,9.36,8.14,2.71,3.28,4.78,6.91,6.21,10.89,1.42,3.98,2.14,8.17,2.14,12.6,0,15.21-7.46,26.34-22.38,33.39,19.6,6.36,29.4,18.73,29.4,37.12,0,8.5-2.14,16.16-6.41,22.97-4.27,6.81-10.04,11.84-17.3,15.09-4.54,1.94-9.77,3.3-15.67,4.1-5.9.79-12.79,1.19-20.65,1.19ZM910.68,385.77v39.3h27.67c7.53,0,13.34-.73,17.45-2.18,4.1-1.45,7.24-4.21,9.41-8.29,1.69-2.9,2.54-6.15,2.54-9.75,0-7.67-2.68-12.77-8.04-15.29-5.36-2.52-13.53-3.78-24.52-3.78h-24.52ZM942.12,447.15h-31.44v44.38h32.46c20.42,0,30.62-7.5,30.62-22.5,0-7.67-2.65-13.23-7.94-16.69s-13.19-5.19-23.71-5.19Z"/>
        <path d="M1022.8,451.82v-73.1c0-6.22,1.37-10.89,4.12-14,2.75-3.11,6.36-4.67,10.84-4.67s8.39,1.56,11.14,4.67c2.75,3.11,4.12,7.78,4.12,14v74.76c0,8.5.93,15.6,2.8,21.31,1.86,5.7,5.17,10.13,9.92,13.27,4.75,3.15,11.4,4.72,19.94,4.72,11.8,0,20.15-3.2,25.03-9.59,4.88-6.39,7.33-16.09,7.33-29.08v-75.38c0-6.29,1.36-10.97,4.07-14.05,2.71-3.08,6.34-4.61,10.89-4.61s8.22,1.54,11.04,4.61c2.81,3.08,4.22,7.76,4.22,14.05v73.1c0,11.89-1.14,21.81-3.41,29.76-2.27,7.95-6.56,14.93-12.87,20.94-5.43,5.12-11.74,8.85-18.92,11.2-7.19,2.35-15.6,3.53-25.23,3.53-11.46,0-21.33-1.26-29.61-3.78-8.28-2.52-15.02-6.43-20.25-11.72-5.22-5.29-9.06-12.06-11.5-20.32-2.44-8.26-3.66-18.13-3.66-29.6Z"/>
        <path d="M1244.6,514.65h-45.58c-6.58,0-11.28-1.5-14.09-4.51-2.82-3.01-4.22-7.79-4.22-14.36v-114.26c0-6.7,1.44-11.53,4.32-14.46,2.88-2.94,7.54-4.41,13.99-4.41h48.33c7.12,0,13.29.45,18.52,1.35,5.22.9,9.9,2.63,14.04,5.18,3.53,2.14,6.65,4.86,9.36,8.14,2.71,3.28,4.78,6.91,6.21,10.89,1.42,3.98,2.14,8.17,2.14,12.6,0,15.21-7.46,26.34-22.38,33.39,19.6,6.36,29.4,18.73,29.4,37.12,0,8.5-2.14,16.16-6.41,22.97-4.27,6.81-10.04,11.84-17.3,15.09-4.54,1.94-9.77,3.3-15.67,4.1-5.9.79-12.79,1.19-20.65,1.19ZM1210.92,385.77v39.3h27.67c7.53,0,13.34-.73,17.45-2.18,4.1-1.45,7.24-4.21,9.41-8.29,1.69-2.9,2.54-6.15,2.54-9.75,0-7.67-2.68-12.77-8.04-15.29-5.36-2.52-13.53-3.78-24.52-3.78h-24.52ZM1242.36,447.15h-31.44v44.38h32.46c20.42,0,30.63-7.5,30.63-22.5,0-7.67-2.65-13.23-7.94-16.69s-13.19-5.19-23.71-5.19Z"/>
        <path d="M1394.47,514.65h-45.58c-6.58,0-11.28-1.5-14.09-4.51-2.82-3.01-4.22-7.79-4.22-14.36v-114.26c0-6.7,1.44-11.53,4.32-14.46,2.88-2.94,7.54-4.41,13.99-4.41h48.33c7.12,0,13.29.45,18.52,1.35,5.22.9,9.9,2.63,14.04,5.18,3.53,2.14,6.65,4.86,9.36,8.14,2.71,3.28,4.78,6.91,6.21,10.89,1.42,3.98,2.14,8.17,2.14,12.6,0,15.21-7.46,26.34-22.38,33.39,19.6,6.36,29.4,18.73,29.4,37.12,0,8.5-2.14,16.16-6.41,22.97-4.27,6.81-10.04,11.84-17.3,15.09-4.54,1.94-9.77,3.3-15.67,4.1-5.9.79-12.79,1.19-20.65,1.19ZM1360.79,385.77v39.3h27.67c7.53,0,13.34-.73,17.45-2.18,4.1-1.45,7.24-4.21,9.41-8.29,1.69-2.9,2.54-6.15,2.54-9.75,0-7.67-2.68-12.77-8.04-15.29-5.36-2.52-13.53-3.78-24.52-3.78h-24.52ZM1392.23,447.15h-31.44v44.38h32.46c20.42,0,30.62-7.5,30.62-22.5,0-7.67-2.65-13.23-7.94-16.69s-13.19-5.19-23.71-5.19Z"/>
        <path d="M1510.25,378.72v110.63h61.25c4.88,0,8.63,1.21,11.24,3.63,2.61,2.42,3.92,5.46,3.92,9.12s-1.29,6.76-3.87,9.07c-2.58,2.32-6.34,3.47-11.29,3.47h-72.95c-6.58,0-11.31-1.48-14.19-4.46-2.88-2.97-4.32-7.78-4.32-14.41v-117.06c0-6.22,1.37-10.89,4.12-14,2.75-3.11,6.36-4.67,10.84-4.67s8.22,1.54,11.04,4.61c2.81,3.08,4.22,7.76,4.22,14.05Z"/>
        <path d="M1704.78,386.39h-68.07v37.33h62.67c4.61,0,8.05,1.05,10.33,3.16,2.27,2.11,3.41,4.89,3.41,8.35s-1.12,6.27-3.36,8.45-5.7,3.27-10.38,3.27h-62.67v43.24h70.41c4.75,0,8.33,1.12,10.73,3.37,2.41,2.25,3.61,5.24,3.61,8.97s-1.21,6.52-3.61,8.76c-2.41,2.25-5.99,3.37-10.73,3.37h-82.11c-6.58,0-11.31-1.48-14.19-4.46-2.88-2.97-4.32-7.78-4.32-14.41v-114.26c0-4.42.64-8.04,1.93-10.83,1.29-2.8,3.31-4.84,6.05-6.12,2.75-1.28,6.26-1.92,10.53-1.92h79.77c4.81,0,8.39,1.09,10.73,3.27,2.34,2.18,3.51,5.03,3.51,8.55s-1.17,6.48-3.51,8.66c-2.34,2.18-5.92,3.27-10.73,3.27Z"/>
      </g>
      <g>
        <path d="M1925.2,466.64c0,4.84-1.17,10.08-3.51,15.71-2.34,5.63-6.02,11.16-11.04,16.59-5.02,5.43-11.43,9.83-19.23,13.22-7.8,3.39-16.89,5.08-27.27,5.08-7.87,0-15.02-.76-21.47-2.28-6.44-1.52-12.29-3.89-17.55-7.1-5.26-3.21-10.09-7.45-14.5-12.7-3.93-4.77-7.29-10.11-10.07-16.02-2.78-5.91-4.87-12.22-6.26-18.92-1.39-6.7-2.09-13.82-2.09-21.36,0-12.24,1.75-23.19,5.24-32.87,3.49-9.68,8.5-17.95,15.01-24.83,6.51-6.88,14.14-12.11,22.89-15.71,8.75-3.59,18.08-5.39,27.98-5.39,12.07,0,22.82,2.46,32.25,7.36,9.43,4.91,16.65,10.97,21.67,18.2,5.02,7.22,7.53,14.05,7.53,20.48,0,3.53-1.22,6.64-3.66,9.33-2.44,2.7-5.39,4.04-8.85,4.04-3.87,0-6.77-.93-8.7-2.8-1.93-1.87-4.09-5.08-6.46-9.64-3.93-7.53-8.56-13.17-13.89-16.9-5.33-3.73-11.89-5.6-19.69-5.6-12.41,0-22.3,4.81-29.66,14.41-7.36,9.61-11.04,23.26-11.04,40.95,0,11.82,1.63,21.65,4.88,29.5,3.26,7.85,7.87,13.71,13.84,17.57,5.97,3.87,12.96,5.81,20.96,5.81,8.68,0,16.02-2.19,22.03-6.58,6-4.39,10.53-10.83,13.58-19.34,1.29-4.01,2.88-7.28,4.78-9.8,1.9-2.52,4.95-3.79,9.16-3.79,3.59,0,6.68,1.28,9.26,3.84,2.58,2.56,3.87,5.74,3.87,9.54Z"/>
        <path d="M1981.97,378.72v110.63h61.25c4.88,0,8.63,1.21,11.24,3.63,2.61,2.42,3.92,5.46,3.92,9.12s-1.29,6.76-3.87,9.07c-2.58,2.32-6.34,3.47-11.29,3.47h-72.95c-6.58,0-11.31-1.48-14.19-4.46-2.88-2.97-4.32-7.78-4.32-14.41v-117.06c0-6.22,1.37-10.89,4.12-14,2.75-3.11,6.36-4.67,10.84-4.67s8.22,1.54,11.04,4.61c2.81,3.08,4.22,7.76,4.22,14.05Z"/>
        <path d="M2176.5,386.39h-68.07v37.33h62.67c4.61,0,8.05,1.05,10.33,3.16,2.27,2.11,3.41,4.89,3.41,8.35s-1.12,6.27-3.36,8.45-5.7,3.27-10.38,3.27h-62.67v43.24h70.41c4.75,0,8.33,1.12,10.73,3.37,2.41,2.25,3.61,5.24,3.61,8.97s-1.21,6.52-3.61,8.76c-2.41,2.25-5.99,3.37-10.73,3.37h-82.11c-6.58,0-11.31-1.48-14.19-4.46-2.88-2.97-4.32-7.78-4.32-14.41v-114.26c0-4.42.64-8.04,1.93-10.83,1.29-2.8,3.31-4.84,6.05-6.12,2.75-1.28,6.26-1.92,10.53-1.92h79.77c4.81,0,8.39,1.09,10.73,3.27,2.34,2.18,3.51,5.03,3.51,8.55s-1.17,6.48-3.51,8.66c-2.34,2.18-5.92,3.27-10.73,3.27Z"/>
        <path d="M2312.64,497.44l-7.12-19.08h-60.64l-7.12,19.49c-2.78,7.61-5.16,12.74-7.12,15.4-1.97,2.66-5.19,3.99-9.67,3.99-3.8,0-7.16-1.42-10.07-4.25-2.92-2.83-4.38-6.05-4.38-9.64,0-2.07.34-4.21,1.02-6.43.68-2.21,1.8-5.29,3.36-9.23l38.15-98.71c1.08-2.83,2.39-6.24,3.92-10.21,1.53-3.97,3.15-7.27,4.88-9.9,1.73-2.63,4-4.75,6.82-6.38,2.81-1.62,6.29-2.44,10.43-2.44s7.71.81,10.53,2.44c2.81,1.62,5.09,3.72,6.82,6.27,1.73,2.56,3.19,5.31,4.38,8.24,1.19,2.94,2.7,6.86,4.53,11.77l38.97,98.08c3.05,7.46,4.58,12.89,4.58,16.28s-1.44,6.76-4.32,9.69c-2.88,2.94-6.36,4.41-10.43,4.41-2.38,0-4.41-.43-6.1-1.29-1.7-.87-3.12-2.04-4.27-3.53-1.15-1.49-2.39-3.77-3.71-6.84-1.32-3.07-2.46-5.79-3.41-8.14ZM2252.81,455.24h44.56l-22.49-62.73-22.08,62.73Z"/>
        <path d="M2406.44,378.51l58.1,89.58v-90.41c0-5.88,1.24-10.28,3.71-13.22,2.48-2.94,5.82-4.41,10.02-4.41s7.77,1.47,10.28,4.41c2.51,2.94,3.76,7.34,3.76,13.22v119.55c0,13.34-5.43,20.01-16.28,20.01-2.71,0-5.16-.4-7.33-1.19-2.17-.79-4.21-2.06-6.1-3.79-1.9-1.73-3.66-3.75-5.29-6.06s-3.26-4.68-4.88-7.1l-56.67-88.54v89.06c0,5.81-1.32,10.2-3.97,13.17-2.65,2.97-6.04,4.46-10.17,4.46s-7.7-1.5-10.28-4.51c-2.58-3.01-3.87-7.38-3.87-13.12v-117.27c0-4.98.54-8.88,1.63-11.72,1.29-3.11,3.42-5.65,6.41-7.62,2.98-1.97,6.21-2.96,9.67-2.96,2.71,0,5.04.45,6.97,1.35,1.93.9,3.63,2.11,5.09,3.63,1.46,1.52,2.95,3.49,4.48,5.91,1.53,2.42,3.1,4.94,4.73,7.57Z"/>
      </g>
    </g>
    <g>
      <path d="M919.19,606.31c0-16.84,11.01-24.43,22.34-24.43,7.73,0,16.18,3.41,19.91,12.84.85,2.16-.26,3.67-2.42,4.06l-1.05.2c-2.03.39-3.01-.46-4-2.36-2.69-5.11-6.94-7.73-12.45-7.73-8.71,0-14.54,6.68-14.54,17.43s5.7,17.29,14.54,17.29c5.63,0,9.96-2.69,12.58-8.06.92-1.9,2.03-2.75,4-2.36l1.05.2c2.16.39,3.14,2.29,1.96,5.11-3.8,8.91-12.05,12.18-19.59,12.18-11.33,0-22.34-7.07-22.34-24.37Z"/>
      <path d="M1022.76,626.62v-40.88c0-2.1,1.18-3.28,3.28-3.28h1.05c2.1,0,3.28,1.18,3.28,3.28v37.27h16.77c2.1,0,3.28,1.18,3.28,3.28v.33c0,2.1-1.18,3.28-3.28,3.28h-21.09c-2.1,0-3.28-1.18-3.28-3.28Z"/>
      <path d="M1109.49,626.62v-40.88c0-2.1,1.18-3.28,3.28-3.28h24.37c2.1,0,3.28,1.18,3.28,3.28v.33c0,2.1-1.18,3.28-3.28,3.28h-20.04v13.23h18.87c2.1,0,3.28,1.18,3.28,3.28v.06c0,2.1-1.18,3.21-3.28,3.21h-18.87v13.89h20.04c2.1,0,3.28,1.18,3.28,3.28v.33c0,2.1-1.18,3.28-3.28,3.28h-24.37c-2.1,0-3.28-1.18-3.28-3.28Z"/>
      <path d="M1241.09,626.09c.92,2.23-.07,3.8-2.42,3.8h-1.31c-1.83,0-3.08-.85-3.8-2.55l-2.69-6.75h-23.65l-2.68,6.75c-.65,1.7-1.97,2.55-3.8,2.55h-1.18c-2.42,0-3.47-1.57-2.55-3.8l17.16-41.07c.72-1.77,1.97-2.55,3.8-2.55h2.1c1.83,0,3.08.79,3.8,2.55l17.23,41.07h0ZM1228.44,614.5l-9.42-23.65-9.38,23.65h18.81Z"/>
      <path d="M1299.4,626.62v-40.88c0-2.1,1.18-3.28,3.28-3.28h1.83c1.77,0,3.01.59,4,2.1l22.99,33.67v-32.49c0-2.1,1.18-3.28,3.28-3.28h1.05c2.1,0,3.28,1.18,3.28,3.28v40.88c0,2.1-1.18,3.28-3.28,3.28h-1.7c-1.77,0-3.01-.59-4-2.1l-23.12-33.87v32.69c0,2.1-1.18,3.28-3.28,3.28h-1.05c-2.1,0-3.28-1.18-3.28-3.28Z"/>
      <path d="M1401.53,626.62v-40.88c0-2.1,1.18-3.28,3.28-3.28h1.05c2.1,0,3.28,1.18,3.28,3.28v40.88c0,2.1-1.18,3.28-3.28,3.28h-1.05c-2.1,0-3.28-1.18-3.28-3.28Z"/>
      <path d="M1471.55,626.62v-40.88c0-2.1,1.18-3.28,3.28-3.28h1.83c1.77,0,3.01.59,4,2.1l22.99,33.67v-32.49c0-2.1,1.18-3.28,3.28-3.28h1.05c2.1,0,3.28,1.18,3.28,3.28v40.88c0,2.1-1.18,3.28-3.28,3.28h-1.7c-1.77,0-3.01-.59-4-2.1l-23.12-33.87v32.69c0,2.1-1.18,3.28-3.28,3.28h-1.05c-2.1,0-3.28-1.18-3.28-3.28Z"/>
      <path d="M1594.31,630.42c-13.49,0-22.14-9.56-22.14-24.37s9.04-24.3,22.34-24.3c8.52,0,14.76,2.82,18.27,8.72,1.2,2.02.21,3.73-2.02,4.19l-.99.21c-1.83.38-3-.27-4.19-1.84-2.4-3.15-5.95-4.65-10.93-4.65-8.91,0-14.87,7.01-14.87,17.75s5.76,17.75,14.87,17.75c8.32,0,13.69-4.65,14.08-13.82h-10.81c-2.1,0-3.28-1.18-3.28-3.28v-.06c0-2.03,1.24-3.14,3.28-3.14h15.39c2.1,0,3.28.79,3.28,2.55v.92c0,14.48-8.58,23.38-22.27,23.38h0Z"/>
      <path d="M1764.84,630.55c-8.33,0-15.53-4.05-18.81-9.5-1.1-1.83-.52-2.94,1.77-3.86l.71-.29c1.72-.69,2.5-.19,4.44,1.9,3.01,3.23,7.02,5.13,11.82,5.13,6.32,0,10.01-2.63,10.01-7.14,0-11.14-27.58-3.41-27.58-21.68,0-7.85,6.65-13.36,16.13-13.36,7.04,0,14.08,3.45,16.93,8.29,1.1,1.87.56,3.16-1.57,3.8l-1.1.33c-1.66.49-2.43-.08-4.34-1.83-2.76-2.53-5.51-3.83-9.55-3.83-5.69,0-9.16,2.51-9.16,6.62,0,11.72,27.71,3.14,27.71,21.68,0,8.25-6.98,13.76-17.42,13.76h0Z"/>
      <path d="M1841.55,626.62v-40.88c0-2.1,1.18-3.28,3.28-3.28h24.37c2.1,0,3.28,1.18,3.28,3.28v.33c0,2.1-1.18,3.28-3.28,3.28h-20.04v13.23h18.87c2.1,0,3.28,1.18,3.28,3.28v.06c0,2.1-1.18,3.21-3.28,3.21h-18.87v13.89h20.04c2.1,0,3.28,1.18,3.28,3.28v.33c0,2.1-1.18,3.28-3.28,3.28h-24.37c-2.1,0-3.28-1.18-3.28-3.28Z"/>
      <path d="M1966.86,625.9c1.77,2.62,1.18,4-2.1,4h-1.44c-1.77,0-2.95-.72-3.93-2.16l-9.04-13.75c-.86.04-1.76.06-2.68.06h-6.88v12.58c0,2.1-1.18,3.28-3.27,3.28h-1.11c-2.1,0-3.28-1.18-3.28-3.28v-40.88c0-2.1,1.18-3.28,3.28-3.28h11.4c14.74,0,20.96,4.26,20.96,15.66,0,7.94-3.5,12.67-10.74,14.72l8.84,13.06ZM1961.09,598.45c0-7.6-4.52-9.43-13.49-9.43h-6.88v18.67h6.88c8.97,0,13.49-1.64,13.49-9.24Z"/>
      <path d="M2042.66,627.34l-16.7-41.07c-.92-2.23.13-3.8,2.55-3.8h1.44c1.83,0,3.08.79,3.73,2.55l14.08,36.03,14.08-36.03c.65-1.77,1.9-2.55,3.73-2.55h1.44c2.42,0,3.47,1.57,2.55,3.8l-16.77,41.07c-.72,1.7-1.96,2.55-3.8,2.55h-2.55c-1.83,0-3.08-.85-3.8-2.55Z"/>
      <path d="M2127.88,626.62v-40.88c0-2.1,1.18-3.28,3.28-3.28h1.05c2.1,0,3.28,1.18,3.28,3.28v40.88c0,2.1-1.18,3.28-3.28,3.28h-1.05c-2.1,0-3.28-1.18-3.28-3.28Z"/>
      <path d="M2196.4,606.31c0-16.84,11.01-24.43,22.34-24.43,7.73,0,16.18,3.41,19.91,12.84.85,2.16-.26,3.67-2.42,4.06l-1.05.2c-2.03.39-3.01-.46-4-2.36-2.69-5.11-6.94-7.73-12.45-7.73-8.71,0-14.54,6.68-14.54,17.43s5.7,17.29,14.54,17.29c5.63,0,9.96-2.69,12.58-8.06.92-1.9,2.03-2.75,4-2.36l1.05.2c2.16.39,3.14,2.29,1.96,5.11-3.8,8.91-12.05,12.18-19.59,12.18-11.33,0-22.34-7.07-22.34-24.37Z"/>
      <path d="M2299.97,626.62v-40.88c0-2.1,1.18-3.28,3.28-3.28h24.37c2.1,0,3.28,1.18,3.28,3.28v.33c0,2.1-1.18,3.28-3.28,3.28h-20.04v13.23h18.87c2.1,0,3.28,1.18,3.28,3.28v.06c0,2.1-1.18,3.21-3.28,3.21h-18.87v13.89h20.04c2.1,0,3.28,1.18,3.28,3.28v.33c0,2.1-1.18,3.28-3.28,3.28h-24.37c-2.1,0-3.28-1.18-3.28-3.28Z"/>
      <path d="M2407.41,630.55c-8.33,0-15.53-4.05-18.81-9.5-1.1-1.83-.52-2.94,1.77-3.86l.71-.29c1.72-.69,2.5-.19,4.44,1.9,3.01,3.23,7.02,5.13,11.82,5.13,6.32,0,10.01-2.63,10.01-7.14,0-11.14-27.58-3.41-27.58-21.68,0-7.85,6.65-13.36,16.13-13.36,7.04,0,14.08,3.45,16.93,8.29,1.1,1.87.56,3.16-1.57,3.8l-1.1.33c-1.66.49-2.43-.08-4.34-1.83-2.76-2.53-5.51-3.83-9.55-3.83-5.69,0-9.16,2.51-9.16,6.62,0,11.72,27.71,3.14,27.71,21.68,0,8.25-6.98,13.76-17.42,13.76h0Z"/>
    </g>
  </g>
</svg>